<svg width="18" height="19" viewBox="0 0 18 19" fill="none" xmlns="http://www.w3.org/2000/svg">
<g clip-path="url(#clip0_2_158)">
<path d="M16.02 7.97C15.84 7.16 15.48 6.35 15.03 5.63L15.93 3.74L14.67 2.48L12.78 3.38C12.06 2.93 11.34 2.66 10.53 2.48L9.9 0.5H8.1L7.38 2.48C6.57 2.66 5.85 3.02 5.13 3.47L3.24 2.57L1.98 3.74L2.88 5.63C2.43 6.35 2.16 7.07 1.98 7.88L0 8.6V10.4L1.98 11.12C2.16 11.93 2.52 12.74 2.88 13.37L1.98 15.26L3.24 16.52L5.13 15.62C5.85 16.07 6.57 16.43 7.38 16.61L8.1 18.5H9.9L10.62 16.52C10.89 16.43 11.25 16.34 11.52 16.25L10.08 14.81C6.66 15.44 3.6 12.92 3.6 9.5C3.6 6.53 6.03 4.1 9 4.1C12.33 4.1 14.85 7.07 14.31 10.22L15.84 11.75C15.93 11.48 16.02 11.3 16.02 11.03L18 10.4V8.6L16.02 7.97Z" fill="#344265"/>
<path d="M17.6397 16.1602L12.3297 10.8502C13.5897 8.06016 10.9797 5.09016 8.09971 5.90016L9.71971 7.52016C10.4397 8.24016 10.4397 9.41016 9.71971 10.0402C9.08971 10.7602 7.82971 10.7602 7.19971 10.0402L5.57971 8.51016C4.76971 11.0302 7.37971 13.9102 10.3497 12.7402L15.6597 18.0502C16.1997 18.5902 17.0097 18.5902 17.5497 18.0502C18.0897 17.6002 18.0897 16.7002 17.6397 16.1602Z" fill="#344265"/>
</g>
<defs>
<clipPath id="clip0_2_158">
<rect y="0.5" width="18" height="18" rx="9" fill="white"/>
</clipPath>
</defs>
</svg>
