<svg width="19" height="18" viewBox="0 0 19 18" fill="none" xmlns="http://www.w3.org/2000/svg">
<path d="M9.05932 2.24799C9.06572 2.248 9.07262 2.24802 9.08002 2.24803L9.15967 2.24828C10.0842 2.25168 14.7699 2.28564 16.0333 2.62529C16.8078 2.83302 17.4176 3.44519 17.6246 4.22227C17.7386 4.6492 17.818 5.21665 17.8734 5.80025L17.8841 5.91714C17.8928 6.01468 17.9009 6.11243 17.9083 6.20982L17.917 6.32649C17.9909 7.35486 17.9995 8.31719 18.0006 8.52773L18.0007 8.55614C18.0007 8.55846 18.0007 8.56226 18.0007 8.56226V8.57821C18.0007 8.57821 18.0007 8.58201 18.0007 8.58433L18.0006 8.61274C17.9995 8.83124 17.9903 9.85937 17.9083 10.9307L17.8991 11.0477L17.8893 11.1648C17.8335 11.809 17.75 12.4486 17.6246 12.9182C17.4176 13.6953 16.8078 14.3076 16.0333 14.5152C14.7278 14.8663 9.768 14.8909 9.08002 14.8926L9.02704 14.8927C9.0227 14.8927 9.01887 14.8927 9.01559 14.8927L8.99398 14.8927C8.99398 14.8927 8.98901 14.8927 8.98572 14.8927L8.92129 14.8926C8.57361 14.8917 7.13491 14.885 5.62823 14.8333L5.4356 14.8264C5.40346 14.8252 5.3713 14.824 5.33915 14.8228L5.1463 14.8152L4.95389 14.807C3.70569 14.7522 2.51561 14.6624 1.96815 14.5152C1.19367 14.3076 0.583813 13.6953 0.376822 12.9182C0.251422 12.4486 0.167822 11.809 0.112089 11.1648L0.10226 11.0477L0.0930261 10.9307C0.0140363 9.89833 0.00257002 8.90607 0.000905566 8.63975L0.000706669 8.60163C0.000692711 8.59819 0.00068108 8.59503 0.000671387 8.59215V8.54832C0.00068108 8.54544 0.000692711 8.54228 0.000706669 8.53884L0.000905566 8.50072C0.002413 8.25954 0.0119601 7.42295 0.0724249 6.50036L0.0802513 6.38462C0.081601 6.36527 0.0829735 6.34589 0.0843692 6.32649L0.0930261 6.20982C0.100478 6.11243 0.108531 6.01468 0.117233 5.91714L0.127991 5.80025C0.183368 5.21665 0.262822 4.6492 0.376822 4.22227C0.583813 3.44519 1.19367 2.83302 1.96815 2.62529C2.51561 2.47811 3.70569 2.38833 4.95389 2.33356L5.1463 2.32541L5.33915 2.31779C5.3713 2.31657 5.40346 2.31536 5.4356 2.31418L5.62823 2.30733C7.03874 2.25891 8.38967 2.24994 8.84164 2.24828L8.92129 2.24803C8.92869 2.24802 8.93559 2.248 8.94199 2.24799H9.05932ZM7.20071 5.86058V11.2799L11.877 8.57038L7.20071 5.86058Z" fill="#344265"/>
</svg>
